<mxfile host="Electron" modified="2023-11-25T21:15:26.392Z" agent="Mozilla/5.0 (X11; Linux x86_64) AppleWebKit/537.36 (KHTML, like Gecko) draw.io/22.1.2 Chrome/114.0.5735.289 Electron/25.9.4 Safari/537.36" etag="PFm1oarSecoAbjaqV9tB" version="22.1.2" type="device">
  <diagram id="y_Ux036iL8ao2liGmcVH" name="core-domain-chart">
    <mxGraphModel dx="2219" dy="1258" grid="1" gridSize="10" guides="1" tooltips="1" connect="1" arrows="1" fold="1" page="1" pageScale="1" pageWidth="850" pageHeight="1100" math="0" shadow="0">
      <root>
        <mxCell id="7POqw8fOx_1jlbIEAkON-0" />
        <mxCell id="7POqw8fOx_1jlbIEAkON-1" style="locked=1;" parent="7POqw8fOx_1jlbIEAkON-0" />
        <mxCell id="uENPYtC2MfaOTDSbOvwd-11" value="" style="group" parent="7POqw8fOx_1jlbIEAkON-1" vertex="1" connectable="0">
          <mxGeometry x="79.5" y="30" width="870.5" height="800" as="geometry" />
        </mxCell>
        <mxCell id="uENPYtC2MfaOTDSbOvwd-5" value="" style="rounded=0;whiteSpace=wrap;html=1;fillColor=#9933FF;strokeColor=none;connectable=0;fillOpacity=60;" parent="uENPYtC2MfaOTDSbOvwd-11" vertex="1">
          <mxGeometry x="200.5" y="14" width="220" height="740" as="geometry" />
        </mxCell>
        <mxCell id="uENPYtC2MfaOTDSbOvwd-7" value="" style="rounded=0;whiteSpace=wrap;html=1;fillColor=#9933FF;strokeColor=none;connectable=0;fillOpacity=60;" parent="uENPYtC2MfaOTDSbOvwd-11" vertex="1">
          <mxGeometry x="420" y="414" width="420.5" height="340" as="geometry" />
        </mxCell>
        <mxCell id="uENPYtC2MfaOTDSbOvwd-0" value="" style="endArrow=classic;html=1;" parent="uENPYtC2MfaOTDSbOvwd-11" edge="1">
          <mxGeometry width="50" height="50" relative="1" as="geometry">
            <mxPoint x="40.5" y="770" as="sourcePoint" />
            <mxPoint x="40.5" as="targetPoint" />
          </mxGeometry>
        </mxCell>
        <mxCell id="uENPYtC2MfaOTDSbOvwd-1" value="&lt;h2&gt;Complexity&lt;/h2&gt;" style="text;html=1;strokeColor=none;fillColor=none;align=center;verticalAlign=middle;whiteSpace=wrap;rounded=0;rotation=-90;" parent="uENPYtC2MfaOTDSbOvwd-11" vertex="1">
          <mxGeometry x="-9.5" y="370" width="39" height="20" as="geometry" />
        </mxCell>
        <mxCell id="uENPYtC2MfaOTDSbOvwd-2" value="" style="endArrow=classic;html=1;" parent="uENPYtC2MfaOTDSbOvwd-11" edge="1">
          <mxGeometry width="50" height="50" relative="1" as="geometry">
            <mxPoint x="40.5" y="770" as="sourcePoint" />
            <mxPoint x="860.5" y="770" as="targetPoint" />
          </mxGeometry>
        </mxCell>
        <mxCell id="uENPYtC2MfaOTDSbOvwd-4" value="&lt;h2&gt;Business differentiation&lt;/h2&gt;" style="text;html=1;strokeColor=none;fillColor=none;align=center;verticalAlign=middle;whiteSpace=wrap;rounded=0;" parent="uENPYtC2MfaOTDSbOvwd-11" vertex="1">
          <mxGeometry x="330.5" y="780" width="260" height="20" as="geometry" />
        </mxCell>
        <mxCell id="uENPYtC2MfaOTDSbOvwd-6" value="&lt;h1&gt;&lt;font color=&quot;#ffffff&quot;&gt;Core&lt;/font&gt;&lt;/h1&gt;" style="rounded=0;whiteSpace=wrap;html=1;fillColor=#4D9900;strokeColor=none;connectable=0;fillOpacity=60" parent="uENPYtC2MfaOTDSbOvwd-11" vertex="1">
          <mxGeometry x="420.5" y="14" width="420" height="400" as="geometry" />
        </mxCell>
        <mxCell id="uENPYtC2MfaOTDSbOvwd-8" value="" style="rounded=0;whiteSpace=wrap;html=1;fillColor=#B3B3B3;strokeColor=none;connectable=0;fillOpacity=60;" parent="uENPYtC2MfaOTDSbOvwd-11" vertex="1">
          <mxGeometry x="50.5" y="15" width="150" height="740" as="geometry" />
        </mxCell>
        <mxCell id="uENPYtC2MfaOTDSbOvwd-9" value="&lt;h1&gt;&lt;font color=&quot;#ffffff&quot;&gt;Supporting&lt;/font&gt;&lt;/h1&gt;" style="text;html=1;strokeColor=none;fillColor=none;align=center;verticalAlign=middle;whiteSpace=wrap;rounded=0;" parent="uENPYtC2MfaOTDSbOvwd-11" vertex="1">
          <mxGeometry x="325.5" y="460" width="40" height="20" as="geometry" />
        </mxCell>
        <mxCell id="uENPYtC2MfaOTDSbOvwd-10" value="&lt;h1&gt;&lt;font color=&quot;#ffffff&quot;&gt;Generic&lt;/font&gt;&lt;/h1&gt;" style="text;html=1;strokeColor=none;fillColor=none;align=center;verticalAlign=middle;whiteSpace=wrap;rounded=0;" parent="uENPYtC2MfaOTDSbOvwd-11" vertex="1">
          <mxGeometry x="110.5" y="460" width="40" height="20" as="geometry" />
        </mxCell>
        <mxCell id="rGnyAY1_3tPmR1fd7tcl-27" value="Low" style="text;html=1;strokeColor=none;fillColor=none;align=center;verticalAlign=middle;whiteSpace=wrap;rounded=0;rotation=-90;" parent="uENPYtC2MfaOTDSbOvwd-11" vertex="1">
          <mxGeometry x="10.5" y="755" width="40" height="20" as="geometry" />
        </mxCell>
        <mxCell id="rGnyAY1_3tPmR1fd7tcl-28" value="High" style="text;html=1;strokeColor=none;fillColor=none;align=center;verticalAlign=middle;whiteSpace=wrap;rounded=0;rotation=-90;" parent="uENPYtC2MfaOTDSbOvwd-11" vertex="1">
          <mxGeometry width="40" height="20" as="geometry" />
        </mxCell>
        <mxCell id="rGnyAY1_3tPmR1fd7tcl-29" value="Low" style="text;html=1;strokeColor=none;fillColor=none;align=center;verticalAlign=middle;whiteSpace=wrap;rounded=0;" parent="uENPYtC2MfaOTDSbOvwd-11" vertex="1">
          <mxGeometry x="40" y="775" width="40" height="20" as="geometry" />
        </mxCell>
        <mxCell id="rGnyAY1_3tPmR1fd7tcl-30" value="High" style="text;html=1;strokeColor=none;fillColor=none;align=center;verticalAlign=middle;whiteSpace=wrap;rounded=0;" parent="uENPYtC2MfaOTDSbOvwd-11" vertex="1">
          <mxGeometry x="830.5" y="775" width="40" height="20" as="geometry" />
        </mxCell>
        <mxCell id="uENPYtC2MfaOTDSbOvwd-12" value="Bounded contexts" style="locked=1;" parent="7POqw8fOx_1jlbIEAkON-0" />
        <mxCell id="rGnyAY1_3tPmR1fd7tcl-7" value="" style="group" parent="uENPYtC2MfaOTDSbOvwd-12" vertex="1" connectable="0">
          <mxGeometry x="770" y="170" width="130" height="20" as="geometry" />
        </mxCell>
        <mxCell id="rGnyAY1_3tPmR1fd7tcl-8" value="" style="ellipse;whiteSpace=wrap;html=1;aspect=fixed;fillColor=#FF3333;" parent="rGnyAY1_3tPmR1fd7tcl-7" vertex="1">
          <mxGeometry width="20" height="20" as="geometry" />
        </mxCell>
        <mxCell id="rGnyAY1_3tPmR1fd7tcl-9" value="Матчинг" style="text;html=1;strokeColor=none;fillColor=none;align=center;verticalAlign=middle;whiteSpace=wrap;rounded=0;" parent="rGnyAY1_3tPmR1fd7tcl-7" vertex="1">
          <mxGeometry x="20" width="110" height="20" as="geometry" />
        </mxCell>
        <mxCell id="rGnyAY1_3tPmR1fd7tcl-11" value="" style="group" parent="uENPYtC2MfaOTDSbOvwd-12" vertex="1" connectable="0">
          <mxGeometry x="150" y="160" width="130" height="20" as="geometry" />
        </mxCell>
        <mxCell id="rGnyAY1_3tPmR1fd7tcl-12" value="" style="ellipse;whiteSpace=wrap;html=1;aspect=fixed;fillColor=#FF3333;" parent="rGnyAY1_3tPmR1fd7tcl-11" vertex="1">
          <mxGeometry width="20" height="20" as="geometry" />
        </mxCell>
        <mxCell id="rGnyAY1_3tPmR1fd7tcl-13" value="Биллинг" style="text;html=1;strokeColor=none;fillColor=none;align=center;verticalAlign=middle;whiteSpace=wrap;rounded=0;" parent="rGnyAY1_3tPmR1fd7tcl-11" vertex="1">
          <mxGeometry x="20" width="110" height="20" as="geometry" />
        </mxCell>
        <mxCell id="rGnyAY1_3tPmR1fd7tcl-22" value="" style="group" parent="uENPYtC2MfaOTDSbOvwd-12" vertex="1" connectable="0">
          <mxGeometry x="470" y="610" width="130" height="20" as="geometry" />
        </mxCell>
        <mxCell id="rGnyAY1_3tPmR1fd7tcl-23" value="" style="group" parent="rGnyAY1_3tPmR1fd7tcl-22" vertex="1" connectable="0">
          <mxGeometry width="130" height="20" as="geometry" />
        </mxCell>
        <mxCell id="rGnyAY1_3tPmR1fd7tcl-24" value="" style="ellipse;whiteSpace=wrap;html=1;aspect=fixed;fillColor=#FF3333;" parent="rGnyAY1_3tPmR1fd7tcl-23" vertex="1">
          <mxGeometry width="20" height="20" as="geometry" />
        </mxCell>
        <mxCell id="rGnyAY1_3tPmR1fd7tcl-25" value="Расходники" style="text;html=1;strokeColor=none;fillColor=none;align=center;verticalAlign=middle;whiteSpace=wrap;rounded=0;" parent="rGnyAY1_3tPmR1fd7tcl-23" vertex="1">
          <mxGeometry x="20" width="110" height="20" as="geometry" />
        </mxCell>
        <mxCell id="3ZNTXsgXTnJ1oy_lYGZp-0" value="" style="group" vertex="1" connectable="0" parent="uENPYtC2MfaOTDSbOvwd-12">
          <mxGeometry x="580" y="150" width="130" height="20" as="geometry" />
        </mxCell>
        <mxCell id="3ZNTXsgXTnJ1oy_lYGZp-1" value="" style="ellipse;whiteSpace=wrap;html=1;aspect=fixed;fillColor=#FF3333;" vertex="1" parent="3ZNTXsgXTnJ1oy_lYGZp-0">
          <mxGeometry x="-11" y="27" width="20" height="20" as="geometry" />
        </mxCell>
        <mxCell id="3ZNTXsgXTnJ1oy_lYGZp-2" value="Оказание услуг" style="text;html=1;strokeColor=none;fillColor=none;align=center;verticalAlign=middle;whiteSpace=wrap;rounded=0;" vertex="1" parent="3ZNTXsgXTnJ1oy_lYGZp-0">
          <mxGeometry x="9" y="27" width="110" height="20" as="geometry" />
        </mxCell>
        <mxCell id="3ZNTXsgXTnJ1oy_lYGZp-12" value="" style="group" vertex="1" connectable="0" parent="uENPYtC2MfaOTDSbOvwd-12">
          <mxGeometry x="590" y="570" width="130" height="20" as="geometry" />
        </mxCell>
        <mxCell id="3ZNTXsgXTnJ1oy_lYGZp-13" value="" style="group" vertex="1" connectable="0" parent="3ZNTXsgXTnJ1oy_lYGZp-12">
          <mxGeometry width="130" height="20" as="geometry" />
        </mxCell>
        <mxCell id="3ZNTXsgXTnJ1oy_lYGZp-14" value="" style="ellipse;whiteSpace=wrap;html=1;aspect=fixed;fillColor=#FF3333;" vertex="1" parent="3ZNTXsgXTnJ1oy_lYGZp-13">
          <mxGeometry width="20" height="20" as="geometry" />
        </mxCell>
        <mxCell id="3ZNTXsgXTnJ1oy_lYGZp-15" value="Тестирование" style="text;html=1;strokeColor=none;fillColor=none;align=center;verticalAlign=middle;whiteSpace=wrap;rounded=0;" vertex="1" parent="3ZNTXsgXTnJ1oy_lYGZp-13">
          <mxGeometry x="20" width="110" height="20" as="geometry" />
        </mxCell>
        <mxCell id="3ZNTXsgXTnJ1oy_lYGZp-16" value="" style="group" vertex="1" connectable="0" parent="uENPYtC2MfaOTDSbOvwd-12">
          <mxGeometry x="470" y="645" width="130" height="20" as="geometry" />
        </mxCell>
        <mxCell id="3ZNTXsgXTnJ1oy_lYGZp-17" value="" style="group" vertex="1" connectable="0" parent="3ZNTXsgXTnJ1oy_lYGZp-16">
          <mxGeometry width="130" height="20" as="geometry" />
        </mxCell>
        <mxCell id="3ZNTXsgXTnJ1oy_lYGZp-18" value="" style="ellipse;whiteSpace=wrap;html=1;aspect=fixed;fillColor=#FF3333;" vertex="1" parent="3ZNTXsgXTnJ1oy_lYGZp-17">
          <mxGeometry width="20" height="20" as="geometry" />
        </mxCell>
        <mxCell id="3ZNTXsgXTnJ1oy_lYGZp-19" value="Ставки" style="text;html=1;strokeColor=none;fillColor=none;align=center;verticalAlign=middle;whiteSpace=wrap;rounded=0;" vertex="1" parent="3ZNTXsgXTnJ1oy_lYGZp-17">
          <mxGeometry x="20" width="110" height="20" as="geometry" />
        </mxCell>
      </root>
    </mxGraphModel>
  </diagram>
</mxfile>
